<svg preserveAspectRatio="xMidYMid" width="50" height="50" viewBox="0 0 77 78" xmlns="http://www.w3.org/2000/svg"><title>LinkedIn_Logo</title><g fill="none" fill-rule="evenodd"><path d="M.883 6.245C.883 3.23 3.39.783 6.483.783h64.569c3.092 0 5.599 2.447 5.599 5.462V71.57c0 3.017-2.507 5.462-5.6 5.462H6.483c-3.092 0-5.599-2.445-5.599-5.462V6.245z" fill="#069" fill-rule="nonzero"/><path d="M23.85 64.61V30.18H12.408v34.43H23.85zM18.13 25.48c3.99 0 6.474-2.644 6.474-5.948-.074-3.379-2.484-5.949-6.399-5.949-3.914 0-6.474 2.57-6.474 5.949 0 3.304 2.484 5.948 6.324 5.948h.074zM30.183 64.61h11.444V45.385c0-1.03.074-2.057.376-2.793.828-2.056 2.71-4.185 5.872-4.185 4.141 0 5.798 3.157 5.798 7.786V64.61h11.443V44.869c0-10.575-5.646-15.496-13.175-15.496-6.174 0-8.884 3.45-10.39 5.8h.076v-4.992H30.183c.15 3.23 0 34.43 0 34.43z" fill="#FFF"/></g></svg>