<svg xmlns="http://www.w3.org/2000/svg" viewBox="0 0 365 308">
  <g fill="none" fill-rule="evenodd">
    <path d="M48.99 206c7.307 0 13.163.277 17.567.832 4.403.555 9.182 1.525 14.335 2.912l-2.249 21.907c-2.155 0-3.794-.046-4.919-.138l-24.735-.139c-3.28 0-5.762.67-7.448 2.01-1.687 1.34-2.858 3.698-3.514 7.072-.656 3.374-.984 8.389-.984 15.044 0 6.655.328 11.67.984 15.044.656 3.374 1.827 5.731 3.514 7.072 1.686 1.34 4.169 2.01 7.448 2.01 7.683 0 13.797-.07 18.34-.208 4.545-.139 9.019-.439 13.422-.901L83 300.424a82.5 82.5 0 01-15.038 3.536c-5.06.693-11.384 1.04-18.973 1.04-10.868 0-19.488-1.595-25.86-4.784-6.37-3.189-10.985-8.365-13.843-15.529C6.43 277.523 5 267.794 5 255.5s1.429-22.023 4.286-29.187c2.858-7.164 7.473-12.34 13.844-15.53C29.5 207.596 38.12 206 48.99 206zm182.128 0c11.43 0 20.327 1.44 26.692 4.323 6.366 2.881 10.988 7.854 13.87 14.92 2.88 7.064 4.32 17.15 4.32 30.257 0 13.107-1.44 23.193-4.32 30.258-2.882 7.065-7.504 12.038-13.87 14.92-6.365 2.881-15.262 4.322-26.692 4.322-13.938 0-27.644-.465-41.118-1.394v-96.212c16.354-.93 30.06-1.394 41.118-1.394zm-.17 77c3.555 0 6.245-.764 8.07-2.292 1.824-1.527 3.11-4.213 3.86-8.055.748-3.843 1.122-9.56 1.122-17.153 0-7.593-.374-13.31-1.123-17.153-.748-3.842-2.035-6.528-3.86-8.055-1.824-1.528-4.514-2.292-8.07-2.292H220v54.861c2.246.093 5.895.139 10.947.139zm126.65-2.069L359 302.193c-6.165.834-13.194 1.344-21.087 1.53-7.894.184-17.631.277-29.214.277-6.632 0-12.074-2.015-16.324-6.045-4.25-4.03-6.375-9.288-6.375-15.773v-53.364c0-6.485 2.125-11.743 6.375-15.773 4.25-4.03 9.692-6.045 16.324-6.045 11.583 0 21.32.093 29.214.278 7.893.185 14.922.695 21.087 1.529l-1.401 21.262h-35.45c-1.774 0-3.175.463-4.203 1.39-1.027.926-1.541 2.13-1.541 3.613v9.31h36.15v20.012h-36.15v11.534c0 1.483.514 2.687 1.541 3.614 1.028.926 2.429 1.39 4.204 1.39h35.449zM36.619 172.711c0 1.479.558 2.68 1.675 3.604 1.118.924 2.599 1.386 4.445 1.386h33.804L78 200.155c-6.605.831-13.648 1.363-21.128 1.594-7.48.23-16.805.346-27.976.346-7.188 0-12.968-2.01-17.34-6.029C7.187 192.046 5 186.803 5 180.335v-74.43h31.619v66.806zM128.927 104c11.988 0 21.32 1.44 27.995 4.318 6.676 2.878 11.525 7.892 14.546 15.041C174.49 130.51 176 140.722 176 154c0 13.278-1.51 23.491-4.532 30.64-3.021 7.15-7.87 12.164-14.546 15.042-6.676 2.879-16.007 4.318-27.995 4.318-11.89 0-21.173-1.44-27.85-4.318-6.675-2.878-11.524-7.892-14.545-15.041C83.51 177.49 82 167.278 82 154c0-13.278 1.51-23.491 4.532-30.64 3.021-7.15 7.87-12.164 14.546-15.042 6.676-2.879 15.959-4.318 27.849-4.318zm-.427 21.905c-3.677 0-6.46.767-8.347 2.301-1.887 1.535-3.218 4.232-3.992 8.09-.774 3.86-1.161 9.602-1.161 17.228 0 7.625.387 13.368 1.161 17.227.774 3.86 2.105 6.556 3.992 8.09 1.887 1.535 4.67 2.302 8.347 2.302 3.677 0 6.46-.767 8.347-2.302 1.887-1.534 3.218-4.23 3.992-8.09.774-3.86 1.161-9.602 1.161-17.227 0-7.626-.387-13.368-1.161-17.227-.774-3.86-2.105-6.556-3.992-8.09-1.887-1.535-4.67-2.302-8.347-2.302zm124.073 68.105c-.582 2.416-1.842 4.368-3.78 5.855-1.94 1.487-4.266 2.23-6.98 2.23h-27.626c-2.714 0-5.04-.743-6.98-2.23-1.938-1.487-3.198-3.439-3.78-5.855L179 105.905h32.424l12.941 62.593c.388 1.673.872 4.368 1.454 8.086l.436 2.927h3.49c.388-3.252 1.018-6.923 1.89-11.013l12.94-62.593H277l-24.427 88.105zm104.968-15.018L359 200.286c-6.418.835-13.736 1.345-21.954 1.53-8.218.186-18.356.28-30.415.28-6.904 0-12.569-2.019-16.994-6.055-4.425-4.036-6.637-9.301-6.637-15.796v-53.442c0-6.495 2.212-11.76 6.637-15.797 4.425-4.036 10.09-6.054 16.994-6.054 12.06 0 22.197.093 30.415.279 8.218.185 15.536.696 21.954 1.53l-1.459 21.294h-36.906c-1.847 0-3.306.464-4.376 1.392-1.07.928-1.604 2.134-1.604 3.618v9.325h37.635v20.04h-37.635v11.552c0 1.485.534 2.69 1.604 3.619 1.07.928 2.529 1.391 4.376 1.391h36.906zM39.947 52.584c4.314.66 7.402 3.116 9.262 7.365C51.07 64.199 52 70.383 52 78.504c0 6.61-.701 11.757-2.103 15.44-1.402 3.682-3.56 6.279-6.472 7.79-2.912 1.51-6.795 2.266-11.649 2.266-6.525 0-11.69-.07-15.491-.212A127.245 127.245 0 015 102.867V5.133c3.398-.472 6.809-.779 10.233-.92C18.658 4.07 23.283 4 29.107 4c5.339 0 9.505.732 12.498 2.195 2.993 1.464 5.164 4.037 6.512 7.72 1.348 3.683 2.022 8.876 2.022 15.58 0 7.083-.795 12.418-2.386 16.006-1.59 3.589-4.193 5.666-7.806 6.233v.85zM34 33.354c0-3.898-.36-6.43-1.08-7.6-.719-1.17-2.2-1.754-4.445-1.754H22v19h6.647c2.188 0 3.626-.633 4.317-1.9.69-1.267 1.036-3.849 1.036-7.746zM28.275 84c1.62 0 2.823-.284 3.607-.852.785-.567 1.334-1.608 1.647-3.122.314-1.514.471-3.832.471-6.955s-.157-5.465-.47-7.026c-.314-1.561-.876-2.626-1.687-3.193-.81-.568-2.026-.852-3.647-.852H22v22h6.275zM107 102H88.795l-3.608-28.7c-.321-2.613-.816-4.363-1.484-5.25-.668-.887-1.751-1.33-3.248-1.33h-5.373V102H58V5.4c3.475-.56 6.777-.933 9.904-1.12C71.032 4.093 75.563 4 81.498 4c5.613 0 10.104.91 13.473 2.73 3.368 1.82 5.854 4.853 7.458 9.1s2.406 10.103 2.406 17.57c0 14-3.743 21.653-11.228 22.96v.84c5.026 1.12 8.047 6.16 9.062 15.12L107 102zM80.882 46c2.458 0 4.092-.657 4.902-1.972C86.594 42.714 87 40.038 87 36s-.405-6.714-1.216-8.028C84.974 26.657 83.34 26 80.882 26H75v20h5.882zm72.312 32.693l.806 21.482c-3.547.842-7.591 1.357-12.132 1.544-4.542.187-10.144.281-16.808.281-3.816 0-6.947-2.036-9.392-6.107C113.223 91.82 112 86.509 112 79.957V26.043c0-6.552 1.223-11.864 3.668-15.936C118.113 6.036 121.244 4 125.06 4c6.664 0 12.266.094 16.808.28 4.54.188 8.585.703 12.132 1.545l-.806 21.482h-20.396c-1.02 0-1.827.468-2.418 1.404-.591.936-.887 2.152-.887 3.65v9.407h20.799v20.218h-20.799v11.653c0 1.498.296 2.714.887 3.65.591.936 1.397 1.404 2.418 1.404h20.396zm36.99 3.36h-15.368L171.97 103H154l14.555-89.128c.38-2.343 1.111-4.24 2.195-5.693C171.835 6.726 173.081 6 174.49 6h16.02c1.409 0 2.655.726 3.74 2.179 1.084 1.453 1.816 3.35 2.195 5.693L211 103h-17.97l-2.846-20.946zM188 60l-2.857-20.211c-.504-4.28-.84-7.876-1.009-10.789h-2.268c-.337 4.279-.673 7.875-1.009 10.789L178 60h10zm68-31.226h-15.683V103h-17.634V28.774H207V6h49v22.774zM310 6v97h-17.488V62.232h-14.024V103H261V6h17.488v34.864h14.024V6H310zm48.194 72.693l.806 21.482c-3.547.842-7.591 1.357-12.132 1.544-4.542.187-10.144.281-16.808.281-3.816 0-6.947-2.036-9.392-6.107C318.223 91.82 317 86.509 317 79.957V26.043c0-6.552 1.223-11.864 3.668-15.936C323.113 6.036 326.244 4 330.06 4c6.664 0 12.266.094 16.808.28 4.54.188 8.585.703 12.132 1.545l-.806 21.482h-20.396c-1.02 0-1.827.468-2.418 1.404-.591.936-.887 2.152-.887 3.65v9.407h20.799v20.218h-20.799v11.653c0 1.498.296 2.714.887 3.65.591.936 1.397 1.404 2.418 1.404h20.396z" fill="#FFF"/>
    <path fill="#2A4480" d="M134.4 220l30.311 17.5v35l-12.99-7.5v-20L134.4 235z"/>
    <path fill="#4671D5" d="M134.4 220v15l-17.321 10v20l-12.99 7.5v-35z"/>
    <path fill="#6C8CD5" d="M134.4 275l17.321-10 12.99 7.5L134.4 290l-30.31-17.5 12.989-7.5z"/>
    <g>
      <path fill="#4671D5" d="M164.711 237.5l12.99-7.5v50L134.4 305v-15l30.311-17.5z"/>
      <path fill="#2A4480" d="M104.089 237.5v35L134.4 290v15l-43.301-25v-50z"/>
      <path fill="#6C8CD5" d="M134.4 205l43.301 25-12.99 7.5L134.4 220l-30.311 17.5-12.99-7.5z"/>
    </g>
  </g>
</svg>
