<svg height="933.333" viewBox="0 0 700 700" width="933.333" xmlns="http://www.w3.org/2000/svg"><path d="m342.1 4.5c-4 2.5-7.4 4.5-7.5 4.5-.2 0-12.3 7-27 15.5s-27 15.5-27.2 15.5c-.3 0-1.7.8-3.2 1.9-1.5 1-16.6 9.9-33.7 19.7-17 9.8-42 24.1-55.5 31.9s-31.9 18.5-41 23.7c-9.1 5.3-29.5 17.1-45.5 26.3-15.9 9.2-30.8 17.8-33 19-2.2 1.3-7.8 4.5-12.5 7.2l-8.5 4.9v350.7l24 13.9c13.2 7.7 26.3 15.2 29 16.7 2.8 1.6 10.4 6 17 9.8 6.6 3.9 19.4 11.3 28.5 16.5s21 12.1 26.5 15.3 27.6 15.9 49 28.3c21.5 12.4 40.4 23.3 42 24.3 1.7 1 4.6 2.7 6.5 3.8 1.9 1 19.3 11 38.5 22.1 19.3 11.2 36.5 21.1 38.3 22.1l3.2 1.9 22.8-13.1c39.7-23 46.5-26.9 47.1-26.9.2 0 1.2-.6 2-1.4.9-.7 4.1-2.7 7.1-4.3 3-1.7 9.8-5.5 15-8.5 5.2-3.1 11.4-6.6 13.6-7.9 5.6-3.2 39.8-23 43.2-25 1.5-.9 4.7-2.7 7.2-4.1 4.1-2.4 89-51.4 97-56.1 1.9-1.1 5.3-3 7.6-4.3 2.2-1.2 5.8-3.3 8-4.6 2.1-1.4 4.6-2.7 5.4-3.1s7.1-4 14-8l12.5-7.4.3-175.7c.1-99-.2-175.6-.7-175.6-.4 0-11.6-6.2-24.7-13.8-13.2-7.7-25.9-15-28.4-16.4s-8.5-4.9-13.5-7.8c-4.9-2.9-10.6-6.1-12.5-7.2s-6.4-3.7-10-5.8-8.1-4.7-10-5.8c-1.9-1-20.8-12-42-24.2-106.5-61.6-160.9-93-161.3-93-.1 0-3.5 2.1-7.6 4.5zm37.7 222.7c16.3 9.4 31.4 18.2 33.4 19.5 2.1 1.2 4 2.3 4.2 2.3s3.7 1.9 7.8 4.3c4 2.4 9.3 5.5 11.8 6.9s10.8 6.2 18.4 10.7c7.6 4.4 14.3 8.1 14.7 8.1 1.1 0 1-7 1 73 0 49.6.3 66.8 1.2 67.9s.9 1.3 0 .8c-.6-.4-8.7 3.7-18 9.1-9.4 5.4-17.6 10.2-18.4 10.5-.8.4-2.7 1.5-4.4 2.5-3.1 1.9-27.5 16.1-32.9 19.2-1.7.9-13.4 7.6-25.9 14.9l-22.8 13.2-9.7-5.8c-5.3-3.2-10.1-6-10.7-6.2-.5-.2-16-9.1-34.3-19.8-18.4-10.6-33.5-19.3-33.6-19.3-.2 0-7.2-4.1-15.7-9-8.4-5-15.7-9-16.1-9-.5 0-.7-31.8-.6-70.7l.3-70.7 8.5-4.9c30.6-17.7 41.9-24.2 45-25.9 1.9-1.1 4-2.4 4.5-2.8.6-.4 3.3-2 6-3.5 9.4-5.3 10.7-6 12.3-7 2-1.2 21.9-12.7 29.5-16.9 2.9-1.6 7.2-4.2 9.7-5.7s4.6-2.8 4.8-2.8c.1-.1 13.6 7.6 30 17.1z"/></svg>