<svg xmlns="http://www.w3.org/2000/svg" width="747" height="653" version="1"><path fill="#ea0000" fill-rule="evenodd" d="M652 589l-608 1c-24 0-34-24-20-48L316 47c17-28 48-28 64 1l296 494c16 23 4 48-24 47z" font-size="12"/><path fill="#fff" fill-rule="evenodd" d="M347 99l-97 160L88 536l194 2 331-3-96-162L347 99z" font-size="12"/><path fill-rule="evenodd" d="M590 519H345c-2 0-4 0-3-3l90-116c3-4 8-6 13-6h45c7 0 10 2 14 7l89 114c0 2 0 4-3 4z" font-size="12"/><rect width="62" height="125" x="402" y="87" fill="#000002" fill-rule="evenodd" font-size="12" rx="11" ry="12" transform="matrix(.88545 .46474 -.40805 .91296 0 0)"/><rect width="100" height="33" x="267" y="269" fill-rule="evenodd" font-size="12" rx="9" ry="8"/><rect width="93" height="28" x="-111" y="375" fill-rule="evenodd" font-size="12" rx="9" ry="7" transform="matrix(.46869 -.88336 .74464 .66747 0 0)"/><rect width="293" height="16" x="361" y="185" fill-rule="evenodd" font-size="12" rx="28" ry="4" transform="matrix(.88458 .46638 -.43668 .89962 0 0)"/><rect width="135" height="27" x="-440" y="335" fill-rule="evenodd" font-size="12" rx="13" ry="7" transform="matrix(-.0572 -.99836 .99704 -.07694 0 0)"/><ellipse cx="419" cy="467" fill-rule="evenodd" font-size="12" rx="31" ry="33" transform="matrix(.95757 0 0 .9728 -15 -201)"/><rect width="78" height="31" x="-504" y="193" fill-rule="evenodd" font-size="12" rx="7" ry="8" transform="matrix(-.234 -.97223 .98564 -.16883 0 0)"/><rect width="78" height="31" x="-494" y="304" fill-rule="evenodd" font-size="12" rx="7" ry="8" transform="matrix(-.00757 -.99997 .99703 .07697 0 0)"/><rect width="157" height="32" x="-297" y="424" fill-rule="evenodd" font-size="12" rx="15" ry="8" transform="matrix(.4947 -.86906 .81787 .5754 0 0)"/></svg>